<svg width="1123" height="856" xmlns="http://www.w3.org/2000/svg" xmlns:xlink="http://www.w3.org/1999/xlink" xml:space="preserve" overflow="hidden"><g><path d="M276.466 800.141C273.377 799.28 268.743 796.525 266.169 794.115 262.393 790.327 261.707 787.917 261.192 777.071 260.677 766.224 261.02 763.986 264.453 759.682 271.661 750.558 287.107 747.287 299.463 752.451 307.015 755.723 310.619 761.576 311.82 772.939 312.85 783.613 309.417 792.91 302.724 797.386 297.576 800.657 284.532 802.035 276.466 800.141ZM292.598 781.719C297.747 776.038 297.747 775.694 293.285 770.012 288.994 764.503 285.562 764.331 280.242 769.324 275.436 773.8 275.265 775.866 279.899 781.719 284.361 787.401 287.45 787.401 292.598 781.719Z" fill-rule="evenodd"/><path d="M360.774 794.113C358.24 790.325 355.538 787.225 354.862 787.225 354.018 787.225 353.511 789.98 353.511 793.252 353.511 799.106 353.342 799.278 346.756 799.278L340 799.278 340 774.139 340 749 355.2 749.689C374.96 750.55 378 753.133 378 768.113 377.831 773.623 376.987 779.305 375.973 780.682 374.622 782.232 374.454 783.954 375.467 785.503 376.48 786.881 377.156 791.013 377.156 794.629 377.156 800.828 376.987 801 371.413 801 366.516 801 364.827 799.795 360.774 794.113ZM361.111 768.285C361.111 766.907 359.422 765.53 357.396 765.186 354.356 764.669 353.511 765.53 353.511 768.285 353.511 771.04 354.356 771.901 357.396 771.384 359.422 771.04 361.111 769.662 361.111 768.285Z" fill-rule="evenodd"/><path d="M452.575 797.26C452.064 795.05 451.893 783.83 452.064 772.1L452.575 750.85 458.715 750.34C465.195 749.83 465.707 750.17 478.668 772.1 479.691 773.97 481.908 771.42 487.365 762.24 494.528 750.34 495.04 750 501.349 750L508 750 508 774.65 508 799.3 501.179 799.3 494.357 799.3 494.357 792.16 494.187 784.85 490.776 791.31C487.706 797.09 486.853 797.6 480.203 797.6 473.381 797.6 472.529 797.09 469.459 791.31L466.218 784.85 465.707 793.01C465.195 800.83 465.025 801 459.397 801 454.622 801 453.258 800.15 452.575 797.26Z" fill-rule="evenodd"/><path d="M626.325 782.701 625.813 764.402 619.491 763.894C613.171 763.385 613 763.216 613 756.608L613 750 633.5 750 654 750 654 756.777C654 763.555 654 763.555 647.167 763.555L640.504 763.555 639.992 781.854 639.479 799.984 633.158 800.492 626.837 801 626.325 782.701Z" fill-rule="evenodd"/><path d="M682 775.585 682 750 688.88 750 695.76 750 695.76 759.319 695.76 768.638 703.5 768.638 711.24 768.638 711.24 760.166 711.24 751.695 718.12 751.695 725 751.695 725 775.416 725 799.136 718.12 799.136 711.24 799.136 711.24 790.664 711.24 782.193 703.672 782.193 695.932 782.193 695.416 791.173 694.9 799.984 688.536 800.492 682 801 682 775.585Z" fill-rule="evenodd"/><path d="M818.318 799.81C817.792 798.96 817.967 787.57 818.493 774.31L819.368 750 832.328 750C847.04 750 853.87 752.55 857.022 759.35 859.824 765.3 859.649 770.91 856.497 778.39 854.57 782.64 854.395 785.19 855.621 786.38 856.497 787.23 857.372 790.63 857.372 793.86 857.372 799.47 857.372 799.47 850.017 798.96 843.712 798.62 841.961 797.6 838.983 793.01 834.78 786.38 832.853 786.04 832.853 791.48 832.853 798.79 831.102 801 824.972 801 821.645 801 818.668 800.49 818.318 799.81ZM840.735 768.7C840.735 767.34 838.983 765.98 836.882 765.64 833.729 765.13 832.853 765.98 832.853 768.7 832.853 771.42 833.729 772.27 836.882 771.76 838.983 771.42 840.735 770.06 840.735 768.7Z" fill-rule="evenodd"/><path d="M200 775.086 200 750 218.062 750.516 235.948 751.031 236.474 757.388 237 763.746 226.128 764.261C219.289 764.605 214.905 765.636 214.379 767.01 214.029 768.385 215.958 769.072 220.867 769.072L228.057 769.072 228.057 775.945 228.057 782.818 221.043 782.818 214.029 782.818 214.029 791.409 214.029 800 207.014 800 200 800 200 775.086Z" fill-rule="evenodd"/><path d="M542.654 793.961C536.614 787.923 536.614 787.75 537.305 774.983 537.822 763.251 538.34 761.525 543.344 756.694 547.485 752.381 550.591 751.001 557.493 750.311 568.882 749.276 573.541 750.656 580.961 757.04 586.828 762.215 587 762.733 587 775.328 587 787.75 586.828 788.44 581.133 794.134 575.439 799.827 574.749 800 561.98 800 549.038 800 548.521 799.827 542.654 793.961ZM566.984 783.437C572.851 777.571 573.368 774.81 568.882 769.979 563.705 764.286 560.254 764.286 555.078 769.979 551.109 774.12 551.109 774.81 553.352 779.296 556.976 786.37 562.497 788.095 566.984 783.437Z" fill-rule="evenodd"/><path d="M754.513 775.586 755.027 751 773 751 790.973 751 791.487 757.361 792 763.723 780.532 764.239C767.18 764.754 763.243 768.537 775.054 769.397 782.243 769.913 782.414 770.084 782.928 776.446L783.442 782.807 775.567 782.807C769.919 782.807 767.865 783.495 768.207 785.042 768.721 786.246 773.171 787.277 780.36 787.621L791.829 788.137 791.829 793.983 791.829 800 773 800 754 800 754.513 775.586Z" fill-rule="evenodd"/><path d="M887.876 797.241C885.234 795.344 884 792.929 884 788.617 884 782.926 884.353 782.754 890.695 782.581 896.157 782.581 896.51 782.236 893.515 781.029 883.648 777.062 880.652 761.713 888.405 754.296 893.162 749.468 901.267 748.778 912.719 751.882 918.886 753.434 919.238 753.952 919.238 760.333 919.238 767.059 919.062 767.232 912.719 767.404 906.552 767.404 906.376 767.577 910.429 769.129 918.886 772.406 921 775.855 921 785.513 921 797.241 917.476 800 902.5 800 895.628 800 890.343 798.965 887.876 797.241Z" fill-rule="evenodd"/><path d="M222.808 731.104C216.315 729.223 209.48 724.092 205.721 717.936 200.594 709.556 200.766 685.272 206.233 676.721 211.53 668.171 223.662 662.356 238.528 661.159 248.781 660.304 250.148 659.791 247.755 657.91 245.363 656.371 242.971 656.371 235.111 658.251 229.814 659.449 222.125 660.475 218.365 660.646 211.53 660.646 211.018 660.304 208.455 653.805 206.917 650.043 205.721 643.202 205.721 638.585L205.721 630.376 215.631 627.64C220.928 626.101 232.035 624.048 240.237 623.023 263.988 619.773 278.855 624.22 287.398 637.046 291.841 643.886 292.012 645.425 293.208 672.446 293.891 688.008 294.917 705.281 295.6 710.582 296.455 718.962 296.113 721.185 292.866 725.632 289.79 730.078 288.082 730.762 281.418 730.762 277.146 730.762 271.165 729.565 268.089 728.026 262.792 725.632 261.938 725.632 256.641 728.368 250.661 731.446 230.327 733.156 222.808 731.104ZM251.515 693.652C252.198 689.034 250.661 688.692 245.363 692.455 240.92 695.533 241.946 698.611 247.243 697.927 249.635 697.585 251.173 696.046 251.515 693.652Z" fill-rule="evenodd"/><path d="M427.817 731.385C426.958 731.044 424.04 730.19 421.464 729.677 415.627 728.31 408.416 721.306 405.326 713.961 402.407 707.298 402.235 688.165 404.811 681.332 407.043 675.524 414.254 667.666 420.434 664.421 423.01 663.054 430.907 661.516 438.118 660.833 450.308 659.808 453.914 658.441 448.763 656.392 447.39 655.879 441.896 656.562 436.23 657.929 430.736 659.125 423.182 660.321 419.576 660.321 413.739 660.321 412.709 659.637 410.305 654 408.76 650.412 407.214 643.579 406.699 638.796L406.013 630.084 415.97 627.18C422.323 625.13 434.17 623.763 447.733 623.251 471.083 622.226 477.95 624.105 486.535 633.33 492.716 639.992 493.917 645.8 493.917 672.108 493.917 691.582 494.432 698.074 496.492 700.636 500.27 705.59 499.755 717.036 495.119 723.698 492.029 728.31 489.797 729.677 484.99 730.019 477.778 730.702 464.73 727.627 464.73 725.236 464.73 724.381 461.983 725.236 458.549 727.286 452.884 730.531 432.796 733.264 427.817 731.385ZM452.368 695.853C455.459 692.778 454.944 689.361 451.339 689.361 447.733 689.361 444.127 692.436 444.127 695.682 444.127 698.415 449.621 698.586 452.368 695.853Z" fill-rule="evenodd"/><path d="M570.143 730.078C565 728.873 556.257 725.946 550.943 723.363 541.171 719.059 541 718.714 541 711.827 541 704.251 544.6 693.921 549.057 689.1 553 684.624 563.457 685.14 573.4 690.133 584.371 695.815 597.229 697.537 601.857 693.921 608.371 689.1 603.4 685.14 574.771 672.399 553 662.585 546.657 654.837 545.114 635.554 543.229 613.515 548.714 602.84 567.572 591.993 575.972 587.172 576.829 587 600.314 587 614.886 587 625.343 587.689 626.886 588.894 628.257 589.927 633.057 592.166 637.686 593.887L646.086 596.986 645.057 607.145C644.543 613.859 642.829 619.369 640.086 623.329 636.657 628.322 635.114 629.183 629.286 629.183 625.514 629.183 619 627.634 614.886 625.567 605.115 621.263 593.457 620.574 589.686 624.19 587.286 626.773 587.629 627.289 594.486 631.249 598.6 633.488 605.286 636.931 609.572 638.653 638.715 651.049 649 663.618 649 687.034 649 707.006 641.114 719.92 624.143 727.495 613.686 732.144 585.057 733.521 570.143 730.078Z" fill-rule="evenodd"/><path d="M751.787 731.011C743.185 729.125 739.572 726.895 731.658 718.319 722.195 708.028 719.959 699.967 719.959 675.44L719.959 655.373 709.293 655.373 698.454 655.373 698.454 674.068C698.454 691.563 698.798 693.106 702.239 695.508 704.303 697.051 708.604 698.252 711.529 698.252 716.174 698.252 717.034 698.938 718.067 703.569 718.583 706.485 719.099 713.345 719.099 718.834L719.099 728.61 707.572 729.639C680.561 732.212 669.723 730.325 663.701 721.749 660.088 716.604 659.744 714.031 658.884 686.246L658.024 656.231 650.798 655.716 643.572 655.202 642.54 645.94C641.852 640.794 641.852 633.763 642.368 630.504 643.572 624.672 643.745 624.501 651.142 624.501L658.884 624.501 658.884 614.381C658.884 598.602 661.465 596.544 681.938 595.686L698.454 595 698.454 609.75 698.454 624.501 709.464 624.501 720.475 624.501 721.68 631.19C722.195 634.791 722.195 640.794 721.68 644.396 720.475 651.943 721.852 650.742 727.873 639.422 737.507 621.242 774.669 615.41 796.862 628.617 810.797 636.85 815.787 647.312 816.819 670.295 818.195 701.339 811.83 717.976 794.969 727.238 789.12 730.497 784.475 731.354 772.604 731.868 764.518 732.212 755.056 731.868 751.787 731.011ZM773.464 692.249C776.561 684.702 776.561 668.923 773.464 661.376 770.54 654.344 768.991 654.001 764.518 658.975 761.937 661.891 761.249 665.149 761.249 676.641 761.249 691.048 763.658 698.252 768.303 698.252 769.679 698.252 772.088 695.508 773.464 692.249Z" fill-rule="evenodd"/><path d="M922.937 730.847C911.562 728.444 904.152 723.124 898.809 713.514 894.5 705.619 893.983 702.529 893.122 682.965L892.26 661.34 883.126 661.855C875.37 662.37 873.13 663.4 869.511 667.69 865.374 672.667 865.202 673.354 865.202 700.813L865.202 728.959 859.687 729.989C856.585 730.504 847.795 730.847 840.212 730.504L826.425 729.989 825.563 693.091C824.874 660.654 824.357 655.677 821.427 651.386 817.463 645.551 818.497 634.739 823.495 628.046 826.425 624.098 828.148 623.583 836.421 623.583 843.831 623.583 847.278 624.613 851.414 627.703 856.24 631.135 857.102 631.307 859.687 629.076 866.236 623.583 880.196 621.352 892.605 623.755 897.775 624.785 897.947 625.128 897.947 633.709L897.947 642.462 902.083 636.455C904.324 633.023 909.839 628.561 914.492 626.158 921.73 622.725 925.522 622.039 940.171 622.039 956.888 621.867 957.75 622.039 965.85 627.359 978.776 635.94 982.74 644.006 983.774 663.057 984.119 671.809 984.119 681.763 983.43 685.196L982.223 691.374 957.923 691.374 933.622 691.374 936.897 694.978C939.482 697.896 941.378 698.411 947.927 697.552 952.235 697.038 960.163 696.008 965.506 695.493L975.157 694.464 978.776 701.328C980.844 705.275 982.395 711.454 982.395 715.058 982.395 721.58 982.051 721.923 972.4 726.214 961.197 731.19 935.691 733.593 922.937 730.847ZM942.929 657.05C939.826 654.304 938.275 653.961 936.552 655.505 932.416 658.766 933.795 660.482 940.688 660.482L947.065 660.311 942.929 657.05Z" fill-rule="evenodd"/><path d="M1011.24 731.453C1007.46 730.937 1000.25 728.872 995.101 726.806L986 723.019 986.858 712.518C988.404 693.066 995.788 688.763 1013.82 696.509 1018.45 698.403 1023.61 699.78 1025.32 699.436 1027.56 698.919 1026.7 697.887 1021.55 695.649 997.161 684.632 992.353 680.5 989.778 667.762 984.283 641.253 996.475 624.039 1022.58 621.285 1034.77 620.08 1055.03 622.834 1064.99 626.965L1071 629.376 1069.97 639.532C1069.28 645.04 1067.91 651.581 1066.88 653.991 1064.99 657.95 1063.79 658.467 1056.75 658.467 1052.28 658.467 1045.24 657.262 1041.29 655.885 1028.07 651.237 1029.96 653.303 1044.04 658.983 1058.29 664.836 1067.74 672.582 1069.8 680.328 1070.31 682.394 1070.49 691.173 1070.31 699.608 1069.63 716.994 1067.22 720.953 1054.34 727.667 1047.65 731.109 1025.84 733.003 1011.24 731.453Z" fill-rule="evenodd"/><path d="M51.5004 729.999C47.5484 729.137 47.5484 728.964 48.5795 711.719 52.1876 651.36 56.9986 592.036 58.5449 590.311 59.7477 588.759 66.7922 588.069 83.1151 588.069 105.451 588.069 106.311 588.242 107.857 592.036 109.919 596.692 117.479 627.561 119.025 637.736 120.4 646.014 122.462 646.014 123.836 637.736 125.726 625.492 134.145 592.208 135.692 590.311 137.926 587.38 182.77 587.207 184.317 589.966 185.004 591.001 186.55 604.797 187.925 620.491 189.128 636.357 191.018 658.603 192.048 669.985 193.079 681.367 194.282 699.302 194.97 709.995L196 729.31 191.877 730.344C189.643 730.862 180.88 731.206 172.289 730.862L156.826 730.344 155.623 706.2C154.935 692.922 153.733 679.298 153.217 676.021 152.186 670.675 151.499 672.055 147.204 689.472 144.626 700.337 142.221 709.477 141.705 709.822 139.987 711.547 118.338 712.409 109.575 711.029 100.297 709.65 100.125 709.477 98.5787 702.751 97.7197 698.957 95.3144 688.955 93.2525 680.332L89.4723 664.811 88.0978 696.371C86.7232 727.757 86.7232 728.102 82.5996 729.654 78.4759 731.206 59.0604 731.379 51.5004 729.999Z" fill-rule="evenodd"/><path d="M307.25 729.642C305.519 728.957 305 712.33 305 654.393L305 580 321.441 580C337.364 580 337.883 580.171 340.825 584.628 343.248 588.056 344.114 593.713 344.632 607.769 345.152 625.938 345.325 626.281 348.959 625.081 350.863 624.396 358.478 623.71 365.574 623.71 376.477 623.71 379.419 624.396 384.438 627.824 393.784 634.509 395.515 640.68 397.072 675.133 397.765 692.103 398.803 710.444 399.495 715.758 400.534 725.186 400.361 725.528 395.168 728.1 387.38 732.213 367.132 731.87 361.939 727.585 357.959 724.329 357.786 723.3 356.92 694.16 356.401 676.847 355.363 663.477 354.324 662.449 352.94 661.078 351.209 661.421 348.613 663.306 344.979 665.877 344.806 666.906 344.806 697.245 344.806 728.442 344.806 728.785 340.998 729.814 336.325 731.013 310.192 731.013 307.25 729.642Z" fill-rule="evenodd"/><path d="M520.11 525.158C520.11 519.659 521.311 518.628 540.352 505.226 551.331 497.493 565.568 487.011 571.915 481.685L583.58 472.234 579.12 464.158C574.832 455.91 569.685 449.552 564.539 445.428 561.108 442.851 548.757 446.975 524.398 459.175 515.993 463.471 503.127 468.969 496.094 471.547 489.061 474.124 481.685 477.045 479.798 478.076 474.823 480.997 447.891 482.028 440.686 479.622 435.883 477.904 433.653 475.671 430.737 469.485 427.135 462.096 426.792 459.347 426.963 434.946 427.306 406.766 426.106 400.752 418.729 396.8 416.671 395.769 413.583 391.302 411.696 387.006 409.809 382.538 405.521 374.978 402.261 370.166 398.659 364.668 394.371 354.53 391.111 343.532 383.735 317.758 381.162 315.009 359.376 309.338L352 307.448 352 298.513C352 290.952 353.201 287.516 358.175 279.096 372.928 255.211 378.932 244.386 382.363 235.451 387.337 222.563 391.455 207.614 390.425 205.896 389.91 205.208 386.823 204.521 383.564 204.521 378.417 204.521 377.731 204.006 377.731 199.882 377.731 197.132 379.447 191.806 381.505 188.025L385.279 180.809 381.162 163.11C377.559 148.161 376.873 140.6 376.873 117.747 376.873 102.625 377.559 87.3326 378.246 83.8959 379.447 77.7097 379.961 77.3662 386.137 77.3662 392.141 77.3662 392.827 77.8818 393.856 82.693 394.371 85.6141 394.885 91.8 394.885 96.2678 394.885 105.375 399.688 120.839 406.035 131.665 411.181 140.428 433.996 168.437 435.883 168.437 436.741 168.437 443.088 173.763 449.95 180.465 456.983 186.994 462.987 192.321 463.502 192.493 464.016 192.493 467.962 195.586 472.079 199.538 476.367 203.318 481.685 207.786 484.087 209.332 491.977 214.659 532.804 251.947 547.728 267.583 579.463 301.09 598.847 333.566 608.796 369.823 611.198 378.242 611.884 387.349 611.884 410.203 611.884 443.71 611.884 443.882 622.863 421.544 629.553 407.797 636.758 381.507 636.758 370.338 636.758 361.918 631.783 340.268 626.98 328.239 621.662 314.837 609.14 290.78 606.395 288.89 605.537 288.375 602.106 284.079 598.675 279.268 595.245 274.628 584.609 263.115 575.003 253.837 556.82 236.482 552.531 232.873 516.679 206.411 485.802 183.558 454.924 157.096 454.924 153.659 454.924 152.8 452.351 149.363 449.264 145.927 441.03 136.82 430.223 117.747 424.733 102.282 420.96 91.4561 419.759 84.5829 419.244 70.1494 418.215 45.2337 418.901 43 427.306 43L433.825 43 434.854 52.1069C436.398 64.307 441.716 79.5999 448.406 90.0815 451.494 94.8928 454.41 99.1888 454.924 99.7044 455.439 100.22 457.669 103.484 459.899 106.921 468.133 120.496 500.04 146.786 556.477 186.307 603.822 219.642 637.787 250.4 653.226 273.769 655.799 277.721 659.23 283.048 660.945 285.625 665.405 291.983 671.752 309.682 675.183 324.287 679.128 342.158 678.957 378.242 674.497 396.113 667.12 427.214 653.74 450.583 630.068 474.468 600.562 503.851 552.36 531 529.373 531L520.11 531 520.11 525.158ZM471.221 443.538C476.024 441.82 485.63 437.696 492.663 434.259 540.18 411.921 546.87 409.859 566.598 411.234 582.208 412.265 581.35 413.468 578.262 393.02 574.488 368.448 562.823 345.079 537.607 311.056 526.628 296.279 496.78 267.583 460.585 236.997 424.562 206.755 424.047 206.411 424.047 211.91 424.047 225.313 414.956 253.149 403.977 273.425L397.801 284.938 403.977 291.124C412.897 299.887 418.215 310.026 422.332 325.662 424.562 334.082 428.507 343.361 432.624 349.718 436.398 355.561 440.172 362.606 441.373 365.527 442.402 368.62 444.975 372.228 447.377 373.603 449.607 375.149 453.037 379.617 455.096 383.741 458.355 389.927 459.041 394.738 459.728 418.795 460.242 434.259 461.1 446.803 461.615 446.803 462.129 446.803 466.589 445.428 471.221 443.538Z" fill-rule="evenodd"/><path d="M667.964 485.473C667.964 480.148 670.023 476.54 680.493 463.314 708.985 427.585 723.059 395.807 727.178 358.188 729.753 333.968 717.567 287.76 702.291 263.884 699.888 260.104 696.455 254.264 694.568 250.829 692.851 247.221 689.247 242.068 686.501 238.977 683.926 235.884 681.695 232.793 681.695 231.934 681.695 231.246 671.912 220.597 659.897 208.4 631.233 179.542 611.152 164.77 554.684 130.758 512.976 105.679 496.671 93.8268 480.88 77.6802 469.724 65.9995 462.172 52.4292 462 43.6686 462 38.5156 462.515 38.0002 467.149 38.0002 470.754 38.0002 477.104 41.779 490.32 51.7421 512.633 68.5762 535.46 82.3182 578.713 104.992 622.309 127.838 640.845 138.832 664.531 156.181 675.001 163.739 712.761 199.124 717.395 205.652 719.455 208.4 722.544 212.351 724.261 214.241 735.589 226.608 751.036 256.326 758.588 280.202 769.23 313.526 769.744 355.096 760.304 390.997 756.357 406.285 743.656 432.223 732.842 447.339 718.082 467.952 689.933 489.767 676.202 491.141L667.964 492 667.964 485.473Z" fill-rule="evenodd"/><path d="M0 453.957 52.2645 46.7534 451.749 0 884.715 96.257 1123 440.376 1092.74 814.747 524.365 856 5.50153 811.997C5.50153 579.949 0 686.005 0 453.957ZM297.942 791.542C304.131 787.417 307.57 778.307 305.335 770.744 300.865 754.071 281.438 750.289 269.919 764.04 266.137 768.509 265.621 770.572 266.308 776.932 268.028 792.402 284.532 799.965 297.942 791.542ZM368.774 787.932 364.82 781.057 368.603 777.791C373.76 773.666 374.276 764.556 369.462 759.743 367.055 757.337 362.757 756.133 355.365 755.446L344.877 754.414 344.877 774.525C344.877 786.729 345.565 794.464 346.596 794.464 347.628 794.464 348.316 791.714 348.316 788.448 348.316 782.604 348.488 782.432 354.849 782.432 360.35 782.432 361.897 783.464 366.196 789.479 372.213 798.074 373.932 797.042 368.774 787.932ZM461.441 765.243C462.129 765.243 466.083 771.431 470.381 778.994 474.679 786.557 478.977 792.745 480.009 792.745 481.04 792.745 485.854 786.042 490.668 777.791L499.436 762.665 499.608 778.651C499.608 787.932 500.296 794.464 501.327 794.464 502.359 794.464 503.046 786.729 503.046 774.697 503.046 763.696 502.359 754.93 501.499 754.93 500.639 754.93 495.826 761.977 490.84 770.4 486.026 778.994 481.384 786.386 480.696 786.729 480.009 787.245 475.195 780.541 470.209 771.947 465.051 763.352 460.237 756.305 459.206 756.133 457.143 755.789 455.939 786.729 457.831 792.745 458.862 795.667 459.378 792.058 459.722 781.229 459.894 772.463 460.753 765.243 461.441 765.243ZM635.427 776.244 635.427 758.368 642.304 758.368C646.086 758.368 649.181 757.68 649.181 756.649 649.181 755.618 642.82 754.93 633.708 754.93 618.579 754.93 612.045 757.68 624.768 758.712L631.129 759.227C631.301 765.415 631.473 771.603 631.645 777.791 632.332 801.855 635.427 800.652 635.427 776.244ZM690.442 785.698 690.442 777.276 703.336 777.276 716.231 777.276 716.231 785.87C716.231 790.683 717.09 794.464 717.95 794.464 718.982 794.464 719.669 787.073 719.669 775.557 719.669 764.04 718.982 756.649 717.95 756.649 717.09 756.649 716.231 760.602 716.231 765.243L716.231 773.838 703.336 773.838 690.442 773.838 690.442 764.384C690.442 759.227 689.754 754.93 688.723 754.93 687.691 754.93 687.004 763.009 687.004 775.728 687.004 788.964 687.691 796.011 688.723 795.324 689.754 794.808 690.442 790.511 690.442 785.698ZM827.98 786.729C827.98 781.745 828.324 781.573 834.514 782.088 839.328 782.604 841.734 783.979 844.313 788.104 846.204 791.027 848.783 793.777 850.158 794.12 851.534 794.636 850.502 792.058 847.924 788.276 843.969 782.432 843.797 781.573 846.204 780.198 847.752 779.338 849.987 776.244 851.19 773.322 855.488 763.009 847.236 754.93 832.451 754.93L824.714 754.93 824.198 774.869C823.854 785.87 824.026 795.152 824.37 795.495 825.917 796.871 827.98 791.886 827.98 786.729ZM209.058 785.87 209.058 777.276 215.935 777.276C219.718 777.276 222.812 776.588 222.812 775.557 222.812 774.697 219.718 773.838 215.763 773.838L208.886 773.838C209.058 771.431 209.23 769.025 209.402 766.618L209.918 759.227 220.749 758.712C235.362 758.024 232.784 754.93 217.482 754.93L205.62 754.93 205.62 774.697C205.62 786.729 206.307 794.464 207.339 794.464 208.37 794.464 209.058 790.683 209.058 785.87ZM576.285 788.62C581.099 783.807 582.131 781.573 582.131 775.213 582.131 767.306 578.005 761.462 568.549 756.649 558.234 751.32 544.652 760.946 543.104 774.525 542.245 781.745 542.589 782.776 548.262 788.448 553.42 793.605 555.483 794.464 562.36 794.464 569.237 794.464 571.3 793.605 576.285 788.62ZM775.544 792.917 763.509 791.886 762.994 784.667C762.822 782.203 762.65 779.739 762.478 777.276L770.386 777.276C775.2 777.276 777.951 776.588 777.263 775.557 776.748 774.697 773.137 773.838 769.355 773.838L762.478 773.838C762.65 771.431 762.822 769.025 762.994 766.618L763.509 759.227 775.544 758.368C790.501 757.164 786.719 754.586 771.074 755.274L760.071 755.789 759.555 775.213C759.383 781.63 759.211 788.047 759.039 794.464L773.309 794.12 787.578 793.777 775.544 792.917ZM911.879 791.714C916.349 788.62 916.864 782.26 912.738 778.651 911.019 777.103 906.034 774.353 901.563 772.463 896.921 770.4 893.311 767.994 893.311 767.134 893.311 763.525 900.36 758.196 903.798 759.055 905.518 759.743 908.612 760.602 910.503 761.118 912.395 761.634 913.942 761.29 913.942 760.259 913.942 759.227 910.847 757.68 907.065 756.649 899.328 754.586 894.687 756.133 891.42 761.977 888.669 767.134 893.827 773.494 903.626 777.276 909.644 779.682 911.535 781.229 911.879 784.839 912.738 791.542 905.69 794.292 897.437 790.511 889.529 786.729 887.981 786.901 893.139 791.027 897.953 795.152 906.549 795.495 911.879 791.714ZM255.305 721.068 263.558 716.599 268.887 720.209C271.81 722.272 276.452 724.506 279.203 725.022 283.501 725.881 284.876 725.194 288.143 720.553 290.893 716.599 291.581 714.021 290.722 710.583 290.034 708.005 289.002 693.051 288.315 677.409 287.283 650.079 287.111 648.704 282.641 641.828 274.217 629.108 261.667 625.327 239.661 628.593 231.752 629.796 222.124 631.687 218.17 632.89 209.746 635.468 209.23 637.531 213.528 648.532 216.107 654.72 216.967 655.407 220.921 654.548 242.927 649.735 248.257 649.391 252.727 652.313 255.821 654.376 257.197 656.782 257.197 660.22 257.197 665.033 257.025 665.033 244.474 666.064 220.233 667.783 207.339 678.784 207.339 697.52 207.339 722.787 231.408 734.648 255.305 721.068ZM456.283 721.24C463.16 717.115 470.381 716.771 470.381 720.553 470.381 721.412 473.476 722.959 477.43 723.99 485.51 726.225 489.12 724.162 492.731 715.396 494.45 711.271 494.278 709.724 492.043 706.458 489.808 703.364 489.293 697.692 489.293 677.237 489.293 663.486 488.433 649.907 487.401 647.156 480.696 629.108 457.831 623.092 426.54 631.171 419.148 633.062 412.787 634.953 412.271 635.296 411.239 636.328 417.085 653.344 418.804 654.376 419.492 654.892 426.197 653.86 433.761 652.313 450.438 648.876 455.596 649.907 458.174 657.126 459.206 660.22 460.066 663.142 460.066 663.83 460.066 664.517 453.533 665.549 445.624 666.064 429.807 667.095 423.962 669.33 416.741 677.065 411.239 682.909 408.489 689.613 408.489 697.52 408.489 709.552 417.6 722.959 427.056 725.022 429.635 725.537 432.558 726.225 433.417 726.74 437.372 728.116 449.406 725.194 456.283 721.24ZM619.266 722.443C641.444 712.646 649.697 690.129 638.865 668.986 633.88 659.189 628.722 655.751 595.197 639.593 581.615 633.062 578.348 628.421 582.646 621.889 584.194 619.654 587.804 617.248 590.727 616.561 597.948 615.014 612.045 617.076 620.642 621.03 624.596 622.749 628.55 624.296 629.409 624.296 631.988 624.296 638.349 613.982 639.725 607.794 640.757 602.466 640.413 602.122 632.504 599.2 628.034 597.653 623.22 595.418 621.845 594.387 620.642 593.356 611.014 592.668 600.355 592.496 581.959 592.496 580.927 592.668 571.816 597.997 559.781 604.872 555.483 609.513 552.044 619.139 547.059 633.234 551.873 649.391 563.735 658.673 566.142 660.564 573.363 664.517 579.896 667.439 586.257 670.19 595.025 674.315 599.323 676.378 612.389 682.737 614.968 695.285 604.481 700.785 597.776 704.223 582.303 701.989 568.033 695.285 559.437 691.332 557.89 691.16 555.311 693.222 552.216 695.801 546.199 707.833 546.027 711.614 546.027 714.536 562.876 722.272 575.254 725.022 588.664 728.116 608.951 726.912 619.266 722.443ZM790.673 721.928C806.318 713.161 813.883 694.77 811.992 669.846 809.757 639.937 788.954 623.092 759.727 627.733 747.005 629.796 738.409 635.984 731.704 647.844 726.374 657.126 725.858 659.017 725.858 674.143 725.686 683.081 726.718 693.91 727.922 697.863 730.156 705.426 741.159 719.006 747.865 722.787 758.352 728.46 779.67 727.944 790.673 721.928ZM967.754 721.068C973.083 718.662 977.553 715.911 977.553 715.052 977.553 712.302 970.677 699.926 968.957 699.926 968.098 699.926 962.94 701.129 957.438 702.504 940.418 706.973 931.134 703.536 928.555 691.847L927.352 686.175 952.453 686.175 977.381 686.175 978.585 679.987C980.476 669.502 978.069 652.313 973.599 644.922 971.364 641.141 965.863 635.64 961.393 632.546 954 627.733 951.937 627.218 940.59 627.218 924.085 627.39 913.598 632.203 906.721 643.203 899.5 654.548 897.953 662.283 898.984 682.394 899.844 697.176 900.704 701.301 904.658 708.521 912.223 722.443 925.289 727.944 946.607 726.225 952.968 725.709 961.908 723.475 967.754 721.068ZM1049.59 722.272C1060.42 716.771 1064.03 711.443 1064.89 699.926 1065.23 694.426 1065.23 687.894 1064.55 685.831 1062.48 677.924 1053.03 670.19 1038.76 664.517 1023.63 658.501 1020.19 655.407 1023.8 651.11 1026.72 647.672 1036.69 647.5 1046.32 650.938 1059.04 655.407 1061.11 654.204 1064.2 639.422 1065.23 635.296 1064.55 634.437 1059.56 632.374 1050.79 628.593 1031.71 625.842 1023.63 627.046 1013.49 628.593 1002.65 635.125 998.184 642.344 994.058 649.219 993.198 661.423 996.293 669.33 998.012 673.971 1009.36 683.425 1016.24 686.175 1035.49 693.738 1039.27 697.348 1033.6 703.02 1030.16 706.458 1017.44 706.286 1010.56 702.676 1001.28 698.035 998.872 697.863 995.949 702.16 994.402 704.395 992.855 709.036 992.167 712.13 991.135 717.974 991.135 718.146 1000.25 721.756 1015.55 728.116 1037.9 728.287 1049.59 722.272ZM77.1933 724.162C81.1476 722.615 81.1476 722.615 83.3825 676.378 84.586 651.11 86.3054 629.624 87.165 628.765 88.0245 627.733 88.7122 628.937 88.7122 631.687 88.7122 634.437 91.807 648.704 95.4173 663.486 99.1994 678.268 102.81 693.222 103.326 696.488 103.841 699.754 105.045 703.192 105.904 704.051 107.624 705.77 134.272 706.458 135.991 704.911 136.507 704.223 140.805 687.722 145.619 667.955 155.246 628.421 155.59 626.874 156.45 627.905 156.794 628.249 157.653 641.828 158.341 657.814 159.029 673.971 160.06 695.629 160.748 705.942L161.779 724.85 174.158 725.022C181.035 725.022 187.568 724.506 188.599 723.818 189.975 722.959 189.975 716.771 188.599 699.754 187.568 687.034 185.849 666.236 184.817 653.517 182.066 615.873 180.175 596.965 178.972 595.075 177.424 592.496 142.868 592.84 140.633 595.59 138.742 597.825 131.865 626.358 126.019 655.751 124.128 665.893 121.893 674.143 121.206 674.143 120.518 674.143 119.486 671.221 118.799 667.783 118.111 664.173 117.252 659.705 116.908 657.814 116.564 655.923 115.016 649.047 113.641 642.344 112.094 635.812 110.546 628.765 110.202 626.874 107.108 612.607 103.498 598.856 102.122 596.45 100.919 593.872 97.9962 593.356 82.867 593.356 70.6604 593.356 64.4712 594.043 63.4394 595.59 62.4081 596.622 61.2045 605.044 60.5168 613.982 59.8292 622.92 58.2819 645.094 56.9066 662.97 52.6086 720.724 52.6086 723.647 56.7347 724.506 63.6116 725.881 73.0671 725.709 77.1933 724.162ZM335.937 724.678C339.72 723.647 339.72 723.303 339.72 692.019 339.72 661.08 339.72 660.392 343.674 657.985 345.737 656.782 349.519 655.235 351.926 654.548 360.178 652.657 361.21 656.267 362.07 689.097 362.929 718.146 363.101 719.177 367.055 722.443 372.041 726.397 382.528 726.74 389.921 722.959 394.391 720.724 394.907 719.693 393.875 715.74 393.188 713.161 392.156 697.176 391.468 680.159 390.093 646.125 388.374 639.422 379.777 633.234 371.182 627.046 362.07 626.702 350.894 631.859L340.579 636.328C340.235 636.328 339.72 626.874 339.548 615.186 338.688 587.168 337.313 584.762 321.668 584.762L310.493 584.762 310.493 654.204C310.493 708.177 311.008 723.818 312.728 724.506 315.65 725.881 331.295 725.881 335.937 724.678ZM708.15 723.99C713.995 723.99 714.511 723.647 714.511 719.006 714.511 716.255 713.995 711.614 713.48 708.692 712.448 704.051 711.589 703.364 706.947 703.364 704.024 703.364 699.726 702.16 697.663 700.614 694.052 698.207 693.881 696.832 693.881 673.971L693.881 650.079 704.884 650.079 715.887 650.079 716.403 643.719C717.778 630.14 717.262 629.452 704.884 629.452L693.881 629.452 693.881 614.67 693.881 599.716 682.362 600.747C667.576 601.95 664.654 604.872 664.654 619.311L664.654 629.452 657.089 629.452C648.493 629.452 646.774 632.374 648.493 643.547 649.525 649.563 650.04 649.907 656.745 650.422L663.794 650.938 664.654 681.019C665.513 709.036 665.857 711.443 669.468 716.599 674.282 723.303 681.33 725.709 693.021 724.85 697.835 724.506 704.54 724.162 708.15 723.99ZM855.66 724.85 860.646 723.647 860.646 695.285 860.646 666.924 866.663 660.908C872.164 655.407 873.54 654.892 879.557 655.751 885.918 656.61 886.778 656.267 889.185 651.626 890.56 648.704 892.28 642.688 892.795 638.218L893.655 629.968 887.466 628.765C878.01 626.874 867.867 630.827 862.537 638.218L857.895 644.578 852.394 638.047C845.345 629.624 836.061 626.186 831.419 630.312 825.745 635.468 824.37 642.172 828.152 647.672 831.075 652.141 831.419 656.267 831.419 688.066 831.419 707.489 831.763 723.818 832.107 724.162 833.482 725.365 850.502 725.881 855.66 724.85ZM547.059 520.819C600.87 499.161 644.195 459.627 662.247 415.796 676.516 380.731 677.032 342.4 663.622 306.647 661.215 300.631 657.949 293.756 656.229 291.178 654.51 288.599 651.072 283.271 648.493 279.317 633.02 255.94 598.979 225.173 551.528 191.826 494.966 152.293 462.988 125.993 454.736 112.415 452.501 108.977 450.266 105.711 449.75 105.195 449.234 104.679 446.312 100.382 443.217 95.5695 436.512 85.0844 431.182 69.7865 429.635 57.5824 429.119 52.5978 427.916 48.4725 427.228 48.4725 421.727 48.4725 423.446 78.7247 429.979 97.4603 435.309 112.93 445.968 132.01 454.392 141.12 457.487 144.557 460.066 147.995 460.066 148.855 460.066 152.293 491.012 178.763 521.958 201.624 557.89 228.095 562.188 231.704 580.412 249.065 590.039 258.347 600.699 269.864 604.137 274.504 607.576 279.317 611.014 283.615 611.874 284.13 613.249 285.161 614.796 287.74 623.564 304.069 634.911 324.868 642.304 351.166 642.304 370.761 642.304 402.389 625.799 441.064 602.934 463.409L594.337 471.831 598.463 461.69C608.263 437.11 610.67 399.123 603.793 374.371 593.994 338.962 574.222 306.304 542.76 273.129 527.803 257.488 486.885 220.188 478.977 214.86 476.57 213.312 471.24 208.843 466.942 205.062 462.816 201.109 458.862 198.014 458.346 198.014 457.831 197.843 451.813 192.514 444.764 185.982 437.888 179.279 431.527 173.95 430.667 173.95 428.776 173.95 405.91 145.932 400.752 137.338 393.875 125.478 390.953 115.68 389.577 99.523 387.686 78.3807 385.795 77.0056 382.528 94.1944 379.777 108.633 381.841 140.26 386.827 161.402 391.296 180.138 390.953 187.014 385.279 195.78L382.356 200.249 387.342 199.218C396.798 197.327 398.689 204.031 393.703 221.735 388.03 242.189 383.56 251.472 363.101 284.646 354.677 298.569 354.849 302.178 364.305 304.585 386.139 310.257 388.717 313.007 396.11 338.79 399.377 349.791 403.675 359.933 407.285 365.433 410.552 370.246 414.85 377.809 416.741 382.278 418.632 386.575 421.727 391.044 423.79 392.075 431.182 396.201 432.558 402.389 432.386 430.922 432.214 454.815 432.558 458.252 435.996 465.128 438.747 471.144 441.154 473.378 445.796 474.925 452.501 477.16 469.521 476.129 474.851 473.378 476.57 472.347 483.963 469.425 491.012 466.847 498.06 464.268 510.955 458.768 519.379 454.471 553.248 437.626 564.423 435.391 573.191 443.642 578.52 448.97 590.211 467.362 591.071 472.347 591.759 475.957 572.675 492.114 545.683 511.022 534.508 518.757 525.396 525.288 525.396 525.632 525.396 527.867 535.368 525.632 547.059 520.819ZM690.958 477.504C714.683 461.346 728.609 445.017 743.394 416.312 771.762 360.964 766.776 290.834 730.5 235.314 726.03 228.438 720.872 221.391 719.325 219.672 717.606 217.782 714.511 213.828 712.448 211.078 707.806 204.546 669.983 169.137 659.496 161.574 635.771 144.214 617.203 133.213 573.535 110.352 530.382 87.6628 507.344 73.9118 485.166 57.0667 468.318 44.519 466.427 43.8314 471.24 52.7696 483.103 74.943 504.078 92.3035 559.781 125.822 616.343 159.856 636.459 174.638 665.169 203.515 677.204 215.719 687.004 226.376 687.004 227.063 687.004 227.923 689.239 231.017 691.818 234.111 694.568 237.205 698.179 242.362 699.898 245.971 701.789 249.409 705.228 255.253 707.634 259.035 717.09 273.645 728.953 307.163 731.36 325.211 732.048 330.368 732.391 343.259 732.391 353.573 731.875 393.966 717.778 428.859 685.8 468.909 678.923 477.676 673.25 485.239 673.25 485.926 673.25 488.161 680.643 484.551 690.958 477.504Z" fill="#FFFFFF" fill-rule="evenodd"/><path d="M281.381 790.555C275.183 789.022 268.812 778.978 270.19 772.679 272.772 759.74 289.645 754.292 297.909 763.826 302.902 769.614 303.419 779.318 298.942 784.937 295.499 789.533 287.407 792.087 281.381 790.555Z" fill="#FFFFFF" fill-rule="evenodd"/><path d="M348 769.742C348 761.806 348.531 760.318 351.715 759.492 358.792 757.342 371 762.633 371 767.758 371 772.552 364.631 776.851 356.492 777.843L348 779 348 769.742Z" fill="#FFFFFF" fill-rule="evenodd"/><path d="M828 768.5 828 758 835.667 759.167C845.167 760.333 848 762.5 848 768.5 848 774.5 845.167 776.667 835.667 777.833L828 779 828 768.5Z" fill="#FFFFFF" fill-rule="evenodd"/><path d="M555.211 790.336C542.088 784.565 543.281 763.577 556.916 759.729 572.254 755.531 583.332 770.223 575.322 784.215 572.595 788.762 570.891 789.986 562.88 791.91 561.517 792.26 557.938 791.56 555.211 790.336Z" fill="#FFFFFF" fill-rule="evenodd"/><path d="M239.881 702.977C231.322 695.949 237.867 684 250.287 684L257 684 257 692.786C257 700.693 256.497 701.923 252.637 703.329 246.93 705.613 243.07 705.613 239.881 702.977Z" fill="#FFFFFF" fill-rule="evenodd"/><path d="M440.785 702.674C437.044 698.761 437.044 690.58 440.955 687.023 442.996 685.067 447.077 684 452.008 684L460 684 460 691.825C460 700.718 457.79 703.207 449.457 704.808 445.206 705.341 442.826 704.808 440.785 702.674Z" fill="#FFFFFF" fill-rule="evenodd"/><path d="M762.186 703.353C758.012 700.953 755.842 691.007 756.009 676.088 756.176 659.798 757.345 655.854 762.854 651.567 769.198 646.765 775.375 648.823 778.547 656.711 781.552 664.085 781.886 687.577 779.048 696.151 776.544 703.868 768.697 707.298 762.186 703.353Z" fill="#FFFFFF" fill-rule="evenodd"/><path d="M928.198 659.34C929.737 650.16 931.79 648 938.461 648 945.474 648 950.605 652.68 951.974 660.24L953 666 940 666 927 666 928.198 659.34Z" fill="#FFFFFF" fill-rule="evenodd"/><path d="M454.751 452.106C454.751 450.902 454.409 437.83 454.237 423.209 453.895 399.472 453.553 395.688 450.13 389.323 448.076 385.195 444.482 380.723 442.256 379.175 439.86 377.799 437.293 374.187 436.266 371.091 435.068 368.167 431.302 361.114 427.537 355.266 423.429 348.902 419.493 339.614 417.268 331.185 412.133 312.093 403.917 298.676 391.937 290.42L388 287.668 395.702 274.251C413.16 243.806 423.429 205.965 417.268 194.268 416.241 192.548 415.899 191 416.583 191 417.097 191 425.141 197.364 434.212 205.277 443.283 213.189 462.281 229.358 476.316 241.226 503.017 263.759 532.627 292.828 542.554 306.245 574.218 349.074 585 375.907 585 412.028 585 422.349 584.658 423.381 582.091 422.349 558.642 412.373 554.021 413.404 497.711 439.894 471.353 452.45 455.093 456.922 454.751 452.106Z" fill="#FFFFFF" fill-rule="evenodd"/></g></svg>