<?xml version="1.0" encoding="utf-8"?>
<!DOCTYPE svg PUBLIC "-//W3C//DTD SVG 1.0//EN" "http://www.w3.org/TR/2001/REC-SVG-20010904/DTD/svg10.dtd">
<svg version="1.0" xmlns="http://www.w3.org/2000/svg" width="609px" height="405px" viewBox="0 0 609 405" preserveAspectRatio="xMidYMid meet">
 <g fill="#000000">
  <path d="M231.55 315.05 c-0.90 -0.25 -2.25 -1.05 -3 -1.75 -1.10 -1.10 -1.30 -1.80 -1.45 -4.95 -0.15 -3.15 -0.05 -3.80 0.95 -5.05 2.10 -2.65 6.60 -3.60 10.20 -2.10 2.20 0.95 3.25 2.65 3.60 5.95 0.30 3.10 -0.70 5.80 -2.65 7.10 -1.50 0.95 -5.30 1.35 -7.65 0.80z m4.70 -5.35 c1.50 -1.65 1.50 -1.75 0.20 -3.40 -1.25 -1.60 -2.25 -1.65 -3.80 -0.20 -1.40 1.30 -1.45 1.90 -0.10 3.60 1.30 1.65 2.20 1.65 3.70 0z"/>
  <path d="M256.15 313.50 c-0.75 -1.10 -1.55 -2 -1.75 -2 -0.25 0 -0.40 0.80 -0.40 1.75 0 1.70 -0.05 1.75 -2 1.75 l-2 0 0 -7.30 0 -7.30 4.50 0.20 c5.85 0.25 6.75 1 6.75 5.35 -0.05 1.60 -0.30 3.25 -0.60 3.65 -0.40 0.45 -0.45 0.95 -0.15 1.40 0.30 0.40 0.50 1.60 0.50 2.65 0 1.80 -0.05 1.85 -1.70 1.85 -1.45 0 -1.95 -0.35 -3.15 -2z m0.10 -7.50 c0 -0.40 -0.50 -0.80 -1.10 -0.90 -0.90 -0.15 -1.15 0.10 -1.15 0.90 0 0.80 0.25 1.05 1.15 0.90 0.60 -0.10 1.10 -0.50 1.10 -0.90z"/>
  <path d="M282.75 314.40 c-0.15 -0.65 -0.20 -3.95 -0.15 -7.40 l0.15 -6.25 1.80 -0.15 c1.90 -0.15 2.05 -0.05 5.85 6.40 0.30 0.55 0.95 -0.20 2.55 -2.90 2.10 -3.50 2.25 -3.60 4.10 -3.60 l1.95 0 0 7.25 0 7.25 -2 0 -2 0 0 -2.10 -0.05 -2.15 -1 1.90 c-0.90 1.70 -1.15 1.85 -3.10 1.85 -2 0 -2.25 -0.15 -3.15 -1.85 l-0.95 -1.90 -0.15 2.40 c-0.15 2.30 -0.20 2.35 -1.85 2.35 -1.40 0 -1.80 -0.25 -2 -1.10z"/>
  <path d="M333.40 310.15 l-0.15 -5.40 -1.85 -0.15 c-1.85 -0.15 -1.90 -0.20 -1.90 -2.15 l0 -1.95 6 0 6 0 0 2 c0 2 0 2 -2 2 l-1.95 0 -0.15 5.40 -0.15 5.35 -1.85 0.15 -1.85 0.15 -0.15 -5.40z"/>
  <path d="M349.50 308.05 l0 -7.55 2 0 2 0 0 2.75 0 2.75 2.25 0 2.25 0 0 -2.50 0 -2.50 2 0 2 0 0 7 0 7 -2 0 -2 0 0 -2.50 0 -2.50 -2.20 0 -2.25 0 -0.15 2.65 -0.15 2.60 -1.85 0.15 -1.90 0.15 0 -7.50z"/>
  <path d="M389.35 315.15 c-0.15 -0.25 -0.10 -3.60 0.05 -7.50 l0.25 -7.15 3.70 0 c4.20 0 6.15 0.75 7.05 2.75 0.80 1.75 0.75 3.40 -0.15 5.60 -0.55 1.25 -0.60 2 -0.25 2.35 0.25 0.25 0.50 1.25 0.50 2.20 0 1.65 0 1.65 -2.10 1.50 -1.80 -0.10 -2.30 -0.40 -3.15 -1.75 -1.20 -1.95 -1.75 -2.05 -1.75 -0.45 0 2.15 -0.50 2.80 -2.25 2.80 -0.95 0 -1.80 -0.15 -1.90 -0.35z m6.40 -9.15 c0 -0.40 -0.50 -0.80 -1.10 -0.90 -0.90 -0.15 -1.15 0.10 -1.15 0.90 0 0.80 0.25 1.05 1.15 0.90 0.60 -0.10 1.10 -0.50 1.10 -0.90z"/>
  <path d="M209.50 307.75 l0 -7.30 5.15 0.15 5.10 0.15 0.15 1.85 0.15 1.85 -3.10 0.15 c-1.95 0.10 -3.20 0.40 -3.35 0.80 -0.10 0.40 0.45 0.60 1.85 0.60 l2.05 0 0 2 0 2 -2 0 -2 0 0 2.50 0 2.50 -2 0 -2 0 0 -7.25z"/>
  <path d="M309.15 313.25 c-1.75 -1.75 -1.75 -1.80 -1.55 -5.50 0.15 -3.40 0.30 -3.90 1.75 -5.30 1.20 -1.25 2.10 -1.65 4.10 -1.85 3.30 -0.30 4.65 0.10 6.80 1.95 1.70 1.50 1.75 1.65 1.75 5.30 0 3.60 -0.05 3.80 -1.70 5.45 -1.65 1.65 -1.85 1.70 -5.55 1.70 -3.75 0 -3.90 -0.05 -5.60 -1.75z m7.05 -3.05 c1.70 -1.70 1.85 -2.50 0.55 -3.90 -1.50 -1.65 -2.50 -1.65 -4 0 -1.15 1.20 -1.15 1.40 -0.50 2.70 1.05 2.05 2.65 2.55 3.95 1.20z"/>
  <path d="M370.60 307.90 l0.15 -7.15 5.25 0 5.25 0 0.15 1.85 0.15 1.85 -3.35 0.15 c-3.90 0.15 -5.05 1.25 -1.60 1.50 2.10 0.15 2.15 0.20 2.30 2.05 l0.15 1.85 -2.30 0 c-1.65 0 -2.25 0.20 -2.15 0.65 0.15 0.35 1.45 0.65 3.55 0.75 l3.35 0.15 0 1.70 0 1.75 -5.50 0 -5.55 0 0.15 -7.10z"/>
  <path d="M409.60 314.20 c-0.75 -0.55 -1.10 -1.25 -1.10 -2.50 0 -1.65 0.10 -1.70 1.90 -1.75 1.55 0 1.65 -0.10 0.80 -0.45 -2.80 -1.15 -3.65 -5.60 -1.45 -7.75 1.35 -1.40 3.65 -1.60 6.90 -0.70 1.75 0.45 1.85 0.60 1.85 2.45 0 1.95 -0.05 2 -1.85 2.05 -1.75 0 -1.80 0.05 -0.65 0.50 2.40 0.95 3 1.95 3 4.75 0 3.40 -1 4.20 -5.25 4.20 -1.95 0 -3.45 -0.30 -4.15 -0.80z"/>
  <path d="M216 295.10 c-1.90 -0.55 -3.90 -2.05 -5 -3.85 -1.50 -2.45 -1.45 -9.55 0.15 -12.05 1.55 -2.50 5.10 -4.20 9.45 -4.55 3 -0.25 3.40 -0.40 2.70 -0.95 -0.70 -0.45 -1.40 -0.45 -3.70 0.10 -1.55 0.35 -3.80 0.65 -4.90 0.70 -2 0 -2.15 -0.10 -2.90 -2 -0.45 -1.10 -0.80 -3.10 -0.80 -4.45 l0 -2.40 2.90 -0.80 c1.55 -0.45 4.80 -1.05 7.20 -1.35 6.95 -0.95 11.30 0.35 13.80 4.10 1.30 2 1.35 2.45 1.70 10.35 0.20 4.55 0.50 9.60 0.70 11.15 0.25 2.45 0.15 3.10 -0.80 4.40 -0.90 1.30 -1.40 1.50 -3.35 1.50 -1.25 0 -3 -0.35 -3.90 -0.80 -1.55 -0.70 -1.80 -0.70 -3.35 0.10 -1.75 0.90 -7.70 1.40 -9.90 0.80z m8.40 -10.95 c0.20 -1.35 -0.25 -1.45 -1.80 -0.35 -1.30 0.90 -1 1.80 0.55 1.60 0.70 -0.10 1.15 -0.55 1.25 -1.25z"/>
  <path d="M275.75 295.30 c-0.25 -0.10 -1.10 -0.35 -1.85 -0.50 -1.70 -0.40 -3.80 -2.45 -4.70 -4.60 -0.85 -1.95 -0.90 -7.55 -0.15 -9.55 0.65 -1.70 2.75 -4 4.55 -4.95 0.75 -0.40 3.05 -0.85 5.15 -1.05 3.55 -0.30 4.60 -0.70 3.10 -1.30 -0.40 -0.15 -2 0.05 -3.65 0.45 -1.60 0.35 -3.80 0.70 -4.85 0.70 -1.70 0 -2 -0.20 -2.70 -1.85 -0.45 -1.05 -0.90 -3.05 -1.05 -4.45 l-0.20 -2.55 2.90 -0.85 c1.85 -0.60 5.30 -1 9.25 -1.15 6.80 -0.30 8.80 0.25 11.30 2.95 1.80 1.95 2.15 3.65 2.15 11.35 0 5.70 0.15 7.60 0.75 8.35 1.10 1.45 0.95 4.80 -0.40 6.75 -0.90 1.35 -1.55 1.75 -2.95 1.85 -2.10 0.20 -5.90 -0.70 -5.90 -1.40 0 -0.25 -0.80 0 -1.80 0.60 -1.65 0.95 -7.50 1.75 -8.95 1.20z m7.15 -10.40 c0.90 -0.90 0.75 -1.90 -0.30 -1.90 -1.05 0 -2.10 0.90 -2.10 1.85 0 0.80 1.60 0.85 2.40 0.05z"/>
  <path d="M317 294.80 c-1.50 -0.35 -4.05 -1.20 -5.60 -1.95 -2.85 -1.25 -2.90 -1.35 -2.90 -3.35 0 -2.20 1.05 -5.20 2.35 -6.60 1.15 -1.30 4.20 -1.15 7.10 0.30 3.20 1.65 6.95 2.15 8.30 1.10 1.90 -1.40 0.45 -2.55 -7.90 -6.25 -6.35 -2.85 -8.20 -5.10 -8.65 -10.70 -0.55 -6.40 1.05 -9.50 6.55 -12.65 2.45 -1.40 2.70 -1.45 9.55 -1.45 4.25 0 7.30 0.20 7.75 0.55 0.40 0.30 1.80 0.95 3.15 1.45 l2.45 0.90 -0.30 2.95 c-0.15 1.95 -0.65 3.55 -1.45 4.70 -1 1.45 -1.45 1.70 -3.15 1.70 -1.10 0 -3 -0.45 -4.20 -1.05 -2.85 -1.25 -6.25 -1.45 -7.35 -0.40 -0.70 0.75 -0.60 0.90 1.40 2.05 1.20 0.65 3.15 1.65 4.40 2.15 8.50 3.60 11.50 7.25 11.50 14.05 0 5.80 -2.30 9.55 -7.25 11.75 -3.05 1.35 -11.40 1.75 -15.75 0.75z"/>
  <path d="M370 295.05 c-2.50 -0.55 -3.55 -1.20 -5.85 -3.70 -2.75 -3 -3.40 -5.35 -3.40 -12.50 l0 -5.85 -3.10 0 -3.15 0 0 5.45 c0 5.10 0.10 5.55 1.10 6.25 0.60 0.45 1.85 0.80 2.70 0.80 1.35 0 1.60 0.20 1.90 1.55 0.15 0.85 0.30 2.85 0.30 4.45 l0 2.85 -3.35 0.30 c-7.85 0.75 -11 0.20 -12.75 -2.30 -1.05 -1.50 -1.15 -2.25 -1.40 -10.35 l-0.25 -8.75 -2.10 -0.15 -2.10 -0.15 -0.30 -2.70 c-0.20 -1.50 -0.20 -3.55 -0.05 -4.50 0.35 -1.70 0.40 -1.75 2.55 -1.75 l2.25 0 0 -2.95 c0 -4.60 0.75 -5.20 6.70 -5.45 l4.80 -0.20 0 4.30 0 4.30 3.20 0 3.20 0 0.35 1.95 c0.15 1.05 0.15 2.80 0 3.85 -0.35 2.20 0.05 1.85 1.80 -1.45 2.80 -5.30 13.60 -7 20.05 -3.15 4.05 2.40 5.50 5.45 5.80 12.15 0.40 9.05 -1.45 13.90 -6.35 16.60 -1.70 0.95 -3.05 1.20 -6.50 1.35 -2.35 0.10 -5.10 0 -6.05 -0.25z m6.30 -11.30 c0.90 -2.20 0.90 -6.80 0 -9 -0.85 -2.05 -1.30 -2.15 -2.60 -0.70 -0.75 0.85 -0.95 1.80 -0.95 5.15 0 4.20 0.70 6.30 2.05 6.30 0.40 0 1.10 -0.80 1.50 -1.75z"/>
  <path d="M419.75 295 c-3.30 -0.70 -5.45 -2.25 -7 -5.05 -1.25 -2.30 -1.40 -3.20 -1.65 -8.90 l-0.25 -6.30 -2.65 0.15 c-2.25 0.15 -2.90 0.45 -3.95 1.70 -1.20 1.45 -1.25 1.65 -1.25 9.65 l0 8.20 -1.60 0.30 c-0.90 0.15 -3.45 0.25 -5.65 0.15 l-4 -0.15 -0.25 -10.75 c-0.20 -9.45 -0.35 -10.90 -1.20 -12.15 -1.15 -1.70 -0.85 -4.85 0.60 -6.80 0.85 -1.15 1.35 -1.30 3.75 -1.30 2.15 0 3.15 0.30 4.35 1.20 1.40 1 1.65 1.05 2.40 0.40 1.90 -1.60 5.95 -2.25 9.55 -1.55 1.50 0.30 1.55 0.40 1.55 2.90 l0 2.55 1.20 -1.75 c0.65 -1 2.25 -2.30 3.60 -3 2.10 -1 3.20 -1.20 7.45 -1.20 4.85 -0.05 5.10 0 7.45 1.55 3.75 2.50 4.90 4.85 5.20 10.40 0.10 2.55 0.10 5.45 -0.10 6.45 l-0.35 1.80 -7.05 0 -7.05 0 0.95 1.05 c0.75 0.85 1.30 1 3.20 0.75 1.25 -0.15 3.55 -0.45 5.10 -0.60 l2.80 -0.30 1.05 2 c0.60 1.15 1.05 2.95 1.05 4 0 1.90 -0.10 2 -2.90 3.25 -3.25 1.45 -10.65 2.15 -14.35 1.35z m5.80 -21.50 c-0.90 -0.80 -1.35 -0.90 -1.85 -0.45 -1.20 0.95 -0.80 1.45 1.20 1.45 l1.85 -0.05 -1.20 -0.95z"/>
  <path d="M445.25 295.20 c-1.10 -0.15 -3.20 -0.75 -4.70 -1.35 l-2.65 -1.10 0.25 -3.05 c0.45 -5.65 2.60 -6.90 7.85 -4.65 1.35 0.55 2.85 0.95 3.35 0.85 0.65 -0.15 0.40 -0.45 -1.10 -1.10 -7.10 -3.20 -8.50 -4.40 -9.25 -8.10 -1.60 -7.70 1.95 -12.70 9.55 -13.50 3.55 -0.35 9.45 0.45 12.35 1.65 l1.75 0.70 -0.30 2.95 c-0.20 1.60 -0.60 3.50 -0.90 4.20 -0.55 1.15 -0.90 1.30 -2.95 1.30 -1.30 0 -3.35 -0.35 -4.50 -0.75 -3.85 -1.35 -3.30 -0.75 0.80 0.90 4.15 1.70 6.90 3.95 7.50 6.20 0.15 0.60 0.20 3.15 0.15 5.60 -0.20 5.05 -0.90 6.20 -4.65 8.15 -1.95 1 -8.30 1.55 -12.55 1.10z"/>
  <path d="M166.10 294.65 c-1.15 -0.25 -1.15 -0.30 -0.85 -5.30 1.05 -17.50 2.45 -34.70 2.90 -35.20 0.35 -0.45 2.40 -0.65 7.15 -0.65 6.50 0 6.75 0.05 7.20 1.15 0.60 1.35 2.80 10.30 3.25 13.25 0.40 2.40 1 2.40 1.40 0 0.55 -3.55 3 -13.20 3.45 -13.75 0.65 -0.85 13.70 -0.90 14.15 -0.10 0.20 0.30 0.65 4.30 1.05 8.85 0.35 4.60 0.90 11.05 1.20 14.35 0.30 3.30 0.65 8.50 0.85 11.60 l0.30 5.60 -1.20 0.30 c-0.65 0.15 -3.20 0.25 -5.70 0.15 l-4.50 -0.15 -0.35 -7 c-0.20 -3.85 -0.55 -7.80 -0.70 -8.75 -0.30 -1.55 -0.50 -1.15 -1.75 3.90 -0.75 3.15 -1.45 5.80 -1.60 5.90 -0.50 0.50 -6.80 0.75 -9.35 0.35 -2.70 -0.40 -2.75 -0.45 -3.20 -2.40 -0.25 -1.10 -0.95 -4 -1.55 -6.50 l-1.10 -4.50 -0.40 9.15 c-0.40 9.10 -0.40 9.20 -1.60 9.65 -1.20 0.45 -6.85 0.50 -9.05 0.10z"/>
  <path d="M240.65 294.65 c-0.50 -0.20 -0.65 -5.05 -0.65 -21.95 l0 -21.70 4.75 0 c4.60 0 4.75 0.05 5.60 1.35 0.70 1 0.95 2.65 1.10 6.75 0.15 5.30 0.20 5.40 1.25 5.05 0.55 -0.20 2.75 -0.40 4.80 -0.40 3.15 0 4 0.20 5.45 1.20 2.70 1.95 3.20 3.75 3.65 13.80 0.20 4.95 0.50 10.30 0.70 11.85 0.30 2.75 0.25 2.85 -1.25 3.60 -2.25 1.20 -8.10 1.10 -9.60 -0.15 -1.15 -0.95 -1.20 -1.25 -1.45 -9.75 -0.15 -5.05 -0.45 -8.95 -0.75 -9.25 -0.40 -0.40 -0.90 -0.30 -1.65 0.25 -1.05 0.75 -1.10 1.05 -1.10 9.90 0 9.10 0 9.20 -1.10 9.50 -1.35 0.35 -8.90 0.35 -9.75 -0.05z"/>
  <path d="M302.50 235.30 c0 -1.60 0.35 -1.90 5.90 -5.80 3.20 -2.25 7.35 -5.30 9.20 -6.85 l3.40 -2.75 -1.30 -2.35 c-1.25 -2.40 -2.75 -4.25 -4.25 -5.45 -1 -0.75 -4.60 0.45 -11.70 4 -2.45 1.25 -6.20 2.85 -8.25 3.60 -2.05 0.75 -4.20 1.60 -4.75 1.90 -1.45 0.85 -9.30 1.15 -11.40 0.45 -1.40 -0.50 -2.05 -1.15 -2.90 -2.95 -1.05 -2.15 -1.15 -2.95 -1.10 -10.05 0.10 -8.20 -0.25 -9.95 -2.40 -11.10 -0.60 -0.30 -1.50 -1.60 -2.05 -2.85 -0.55 -1.30 -1.80 -3.50 -2.75 -4.90 -1.05 -1.60 -2.30 -4.55 -3.25 -7.75 -2.15 -7.50 -2.90 -8.30 -9.25 -9.95 l-2.15 -0.55 0 -2.60 c0 -2.20 0.35 -3.20 1.80 -5.65 4.30 -6.95 6.05 -10.10 7.05 -12.70 1.45 -3.75 2.65 -8.10 2.35 -8.60 -0.15 -0.20 -1.05 -0.40 -2 -0.40 -1.50 0 -1.70 -0.15 -1.70 -1.35 0 -0.80 0.50 -2.35 1.10 -3.45 l1.10 -2.10 -1.20 -5.15 c-1.05 -4.35 -1.25 -6.55 -1.25 -13.20 0 -4.40 0.20 -8.85 0.40 -9.85 0.35 -1.80 0.50 -1.90 2.30 -1.90 1.75 0 1.95 0.15 2.25 1.55 0.15 0.85 0.30 2.65 0.30 3.95 0 2.65 1.40 7.15 3.25 10.30 1.50 2.55 8.15 10.70 8.70 10.70 0.25 0 2.10 1.55 4.10 3.50 2.05 1.90 3.80 3.45 3.95 3.50 0.15 0 1.30 0.90 2.50 2.05 1.25 1.10 2.80 2.40 3.50 2.85 2.30 1.55 14.20 12.40 18.55 16.95 9.25 9.75 14.90 19.20 17.80 29.75 0.70 2.45 0.90 5.10 0.90 11.75 0 9.75 0 9.80 3.20 3.30 1.95 -4 4.05 -11.65 4.05 -14.90 0 -2.45 -1.45 -8.75 -2.85 -12.25 -1.55 -3.90 -5.20 -10.90 -6 -11.45 -0.25 -0.15 -1.25 -1.40 -2.25 -2.80 -1 -1.35 -4.10 -4.70 -6.90 -7.40 -5.30 -5.05 -6.55 -6.10 -17 -13.80 -9 -6.65 -18 -14.35 -18 -15.35 0 -0.25 -0.75 -1.25 -1.65 -2.25 -2.40 -2.65 -5.55 -8.20 -7.15 -12.70 -1.10 -3.15 -1.45 -5.15 -1.60 -9.35 -0.30 -7.25 -0.10 -7.90 2.35 -7.90 l1.90 0 0.30 2.65 c0.45 3.55 2 8 3.95 11.05 0.90 1.40 1.75 2.65 1.90 2.80 0.15 0.15 0.80 1.10 1.45 2.10 2.40 3.95 11.70 11.60 28.15 23.10 13.80 9.70 23.70 18.65 28.20 25.45 0.75 1.15 1.75 2.70 2.25 3.45 1.30 1.85 3.15 7 4.15 11.25 1.15 5.20 1.10 15.70 -0.20 20.90 -2.15 9.05 -6.05 15.85 -12.95 22.80 -8.60 8.55 -22.65 16.45 -29.35 16.45 l-2.70 0 0 -1.70z m-14.25 -23.75 c1.40 -0.50 4.20 -1.70 6.25 -2.70 13.85 -6.50 15.80 -7.10 21.55 -6.70 4.55 0.30 4.30 0.65 3.40 -5.30 -1.10 -7.15 -4.50 -13.95 -11.85 -23.85 -3.20 -4.30 -11.90 -12.65 -22.45 -21.55 -10.50 -8.80 -10.65 -8.90 -10.65 -7.30 0 3.90 -2.65 12 -5.85 17.90 l-1.80 3.35 1.80 1.80 c2.60 2.55 4.15 5.50 5.35 10.05 0.65 2.45 1.80 5.15 3 7 1.10 1.70 2.20 3.75 2.55 4.60 0.30 0.90 1.05 1.95 1.75 2.35 0.65 0.45 1.65 1.75 2.25 2.95 0.95 1.80 1.15 3.20 1.35 10.20 0.15 4.50 0.40 8.15 0.55 8.15 0.15 0 1.45 -0.40 2.80 -0.95z"/>
  <path d="M345.50 223.75 c0 -1.55 0.60 -2.60 3.65 -6.45 8.30 -10.40 12.40 -19.65 13.60 -30.60 0.75 -7.05 -2.80 -20.50 -7.25 -27.45 -0.70 -1.10 -1.70 -2.80 -2.25 -3.80 -0.50 -1.05 -1.55 -2.55 -2.35 -3.45 -0.75 -0.90 -1.40 -1.80 -1.40 -2.05 0 -0.20 -2.85 -3.30 -6.35 -6.85 -8.35 -8.40 -14.20 -12.70 -30.65 -22.60 -12.15 -7.30 -16.90 -10.75 -21.50 -15.45 -3.25 -3.40 -5.45 -7.35 -5.50 -9.90 0 -1.50 0.15 -1.65 1.50 -1.65 1.05 0 2.90 1.10 6.75 4 6.50 4.90 13.15 8.90 25.75 15.50 12.70 6.65 18.10 9.85 25 14.90 3.05 2.20 14.05 12.50 15.40 14.40 0.60 0.80 1.50 1.95 2 2.50 3.30 3.60 7.80 12.25 10 19.20 3.10 9.70 3.25 21.80 0.50 32.25 -1.15 4.45 -4.85 12 -8 16.40 -4.30 6 -12.50 12.35 -16.50 12.75 l-2.40 0.25 0 -1.90z"/>
 </g>
 <g fill="#ffffff">
  <path d="M0 202.50 l0 -202.50 304.50 0 304.50 0 0 202.50 0 202.50 -304.50 0 -304.50 0 0 -202.50z m237.85 110.15 c1.80 -1.20 2.80 -3.85 2.15 -6.05 -1.30 -4.85 -6.95 -5.95 -10.30 -1.95 -1.10 1.30 -1.25 1.90 -1.05 3.75 0.50 4.50 5.30 6.70 9.20 4.25z m20.60 -1.05 l-1.15 -2 1.10 -0.95 c1.50 -1.20 1.65 -3.85 0.25 -5.25 -0.70 -0.70 -1.95 -1.05 -4.10 -1.25 l-3.05 -0.30 0 5.85 c0 3.55 0.20 5.80 0.50 5.80 0.30 0 0.50 -0.80 0.50 -1.75 0 -1.70 0.05 -1.75 1.90 -1.75 1.60 0 2.05 0.30 3.30 2.05 1.75 2.50 2.25 2.20 0.75 -0.45z m26.95 -6.60 c0.20 0 1.35 1.80 2.60 4 1.25 2.20 2.50 4 2.80 4 0.30 0 1.70 -1.95 3.10 -4.35 l2.55 -4.40 0.05 4.65 c0 2.70 0.20 4.60 0.50 4.60 0.30 0 0.50 -2.25 0.50 -5.75 0 -3.20 -0.20 -5.75 -0.45 -5.75 -0.25 0 -1.65 2.05 -3.10 4.50 -1.40 2.50 -2.75 4.65 -2.95 4.75 -0.20 0.15 -1.60 -1.80 -3.05 -4.30 -1.50 -2.50 -2.90 -4.55 -3.20 -4.60 -0.60 -0.10 -0.95 8.90 -0.40 10.65 0.30 0.85 0.45 -0.20 0.55 -3.35 0.05 -2.55 0.30 -4.65 0.50 -4.65z m50.60 3.20 l0 -5.20 2 0 c1.10 0 2 -0.20 2 -0.50 0 -0.30 -1.85 -0.50 -4.50 -0.50 -4.40 0 -6.30 0.80 -2.60 1.10 l1.85 0.15 0.15 5.40 c0.20 7 1.10 6.65 1.10 -0.45z m16 2.75 l0 -2.45 3.75 0 3.75 0 0 2.50 c0 1.40 0.25 2.50 0.50 2.50 0.30 0 0.50 -2.15 0.50 -5.50 0 -3.35 -0.20 -5.50 -0.50 -5.50 -0.25 0 -0.50 1.15 -0.50 2.50 l0 2.50 -3.75 0 -3.75 0 0 -2.75 c0 -1.50 -0.20 -2.75 -0.50 -2.75 -0.30 0 -0.50 2.35 -0.50 6.05 0 3.85 0.20 5.90 0.50 5.70 0.30 -0.15 0.50 -1.40 0.50 -2.80z m40 0.30 c0 -1.45 0.10 -1.50 1.90 -1.35 1.40 0.15 2.10 0.55 2.85 1.75 0.55 0.85 1.30 1.65 1.70 1.75 0.40 0.15 0.10 -0.60 -0.65 -1.70 -1.15 -1.70 -1.20 -1.95 -0.50 -2.35 0.45 -0.25 1.10 -1.15 1.45 -2 1.25 -3 -1.15 -5.35 -5.45 -5.35 l-2.25 0 -0.15 5.80 c-0.10 3.20 -0.05 5.90 0.05 6 0.45 0.40 1.05 -1.05 1.05 -2.55z m-180 -0.25 l0 -2.50 2 0 c1.10 0 2 -0.20 2 -0.50 0 -0.25 -0.90 -0.50 -2.05 -0.50 l-2 0 0.15 -2.10 0.15 -2.15 3.15 -0.15 c4.25 -0.20 3.50 -1.10 -0.95 -1.10 l-3.45 0 0 5.75 c0 3.50 0.20 5.75 0.50 5.75 0.30 0 0.50 -1.10 0.50 -2.50z m106.80 0.80 c1.40 -1.40 1.70 -2.05 1.70 -3.90 0 -2.30 -1.20 -4 -3.95 -5.40 -3 -1.55 -6.95 1.25 -7.40 5.20 -0.25 2.10 -0.15 2.40 1.50 4.05 1.50 1.50 2.10 1.75 4.10 1.75 2 0 2.60 -0.25 4.05 -1.70z m57.95 1.25 l-3.50 -0.30 -0.15 -2.10 -0.15 -2.15 2.30 0 c1.40 0 2.20 -0.20 2 -0.50 -0.15 -0.25 -1.20 -0.50 -2.30 -0.50 l-2 0 0.15 -2.10 0.15 -2.15 3.50 -0.25 c4.35 -0.35 3.25 -1.10 -1.30 -0.90 l-3.20 0.15 -0.15 5.65 -0.15 5.60 4.15 -0.10 4.15 -0.10 -3.50 -0.25z m39.65 -0.35 c1.30 -0.90 1.45 -2.75 0.25 -3.80 -0.50 -0.45 -1.95 -1.25 -3.25 -1.80 -1.35 -0.60 -2.40 -1.30 -2.40 -1.55 0 -1.05 2.05 -2.60 3.05 -2.35 0.50 0.20 1.40 0.45 1.95 0.60 0.55 0.15 1 0.05 1 -0.25 0 -0.30 -0.90 -0.75 -2 -1.05 -2.25 -0.60 -3.60 -0.15 -4.55 1.55 -0.80 1.50 0.70 3.35 3.55 4.45 1.75 0.70 2.30 1.15 2.40 2.20 0.25 1.95 -1.80 2.75 -4.20 1.65 -2.30 -1.10 -2.75 -1.05 -1.25 0.15 1.40 1.20 3.90 1.30 5.45 0.20z m-190.95 -20.55 l2.40 -1.30 1.55 1.05 c0.85 0.60 2.20 1.25 3 1.40 1.25 0.25 1.65 0.05 2.60 -1.30 0.80 -1.15 1 -1.90 0.75 -2.90 -0.20 -0.75 -0.50 -5.10 -0.70 -9.65 -0.30 -7.95 -0.35 -8.35 -1.65 -10.35 -2.45 -3.70 -6.10 -4.80 -12.50 -3.85 -2.30 0.35 -5.10 0.90 -6.25 1.25 -2.45 0.75 -2.60 1.35 -1.35 4.55 0.75 1.80 1 2 2.15 1.75 6.40 -1.40 7.95 -1.50 9.25 -0.65 0.90 0.60 1.30 1.30 1.30 2.30 0 1.40 -0.05 1.40 -3.70 1.70 -7.05 0.50 -10.80 3.70 -10.80 9.15 0 7.35 7 10.80 13.95 6.85z m58.45 0.05 c2 -1.20 4.10 -1.30 4.10 -0.20 0 0.25 0.90 0.70 2.05 1 2.35 0.65 3.40 0.05 4.45 -2.50 0.50 -1.20 0.45 -1.65 -0.20 -2.60 -0.65 -0.90 -0.80 -2.55 -0.80 -8.50 0 -4 -0.25 -7.95 -0.55 -8.75 -1.95 -5.25 -8.60 -7 -17.70 -4.65 -2.15 0.55 -4 1.10 -4.15 1.20 -0.30 0.30 1.40 5.25 1.90 5.55 0.20 0.15 2.15 -0.15 4.35 -0.60 4.85 -1 6.35 -0.70 7.10 1.40 0.30 0.90 0.55 1.75 0.55 1.95 0 0.20 -1.90 0.50 -4.20 0.65 -4.60 0.30 -6.30 0.95 -8.40 3.20 -1.60 1.70 -2.40 3.65 -2.40 5.95 0 3.50 2.65 7.40 5.40 8 0.75 0.15 1.60 0.35 1.85 0.50 1.15 0.40 4.65 -0.45 6.65 -1.60z m47.40 0.35 c6.45 -2.85 8.85 -9.40 5.70 -15.55 -1.45 -2.85 -2.95 -3.85 -12.70 -8.55 -3.95 -1.90 -4.90 -3.25 -3.65 -5.15 0.45 -0.65 1.50 -1.35 2.35 -1.55 2.10 -0.45 6.20 0.15 8.70 1.30 1.15 0.50 2.30 0.95 2.55 0.95 0.75 0 2.60 -3 3 -4.80 0.30 -1.55 0.20 -1.65 -2.10 -2.50 -1.30 -0.45 -2.70 -1.10 -3.10 -1.40 -0.35 -0.30 -3.15 -0.50 -6.25 -0.55 -5.35 0 -5.65 0.05 -8.30 1.60 -3.50 2 -4.75 3.35 -5.75 6.15 -1.45 4.10 -0.05 8.80 3.40 11.50 0.70 0.55 2.80 1.70 4.70 2.55 1.85 0.80 4.40 2 5.65 2.60 3.80 1.85 4.55 5.50 1.50 7.10 -1.95 1 -6.45 0.35 -10.60 -1.60 -2.50 -1.15 -2.95 -1.20 -3.70 -0.60 -0.90 0.75 -2.65 4.25 -2.70 5.35 0 0.85 4.90 3.10 8.50 3.90 3.90 0.90 9.80 0.55 12.80 -0.75z m49.85 -0.15 c4.55 -2.55 6.75 -7.90 6.20 -15.15 -0.65 -8.70 -6.70 -13.60 -15.20 -12.25 -3.70 0.60 -6.20 2.40 -8.15 5.85 -1.55 2.70 -1.70 3.25 -1.70 7.65 -0.05 2.60 0.25 5.75 0.60 6.90 0.65 2.20 3.85 6.15 5.80 7.25 3.05 1.65 9.25 1.50 12.45 -0.25z m51.50 -0.25 c1.55 -0.70 2.85 -1.50 2.85 -1.75 0 -0.80 -2 -4.40 -2.50 -4.40 -0.25 0 -1.75 0.35 -3.35 0.75 -4.95 1.30 -7.65 0.30 -8.40 -3.10 l-0.35 -1.65 7.30 0 7.25 0 0.35 -1.80 c0.55 -3.05 -0.15 -8.05 -1.45 -10.20 -0.65 -1.10 -2.25 -2.70 -3.55 -3.60 -2.15 -1.40 -2.75 -1.55 -6.05 -1.55 -4.80 0.05 -7.85 1.45 -9.85 4.65 -2.10 3.30 -2.55 5.55 -2.25 11.40 0.25 4.30 0.50 5.50 1.65 7.60 2.20 4.05 6 5.65 12.20 5.15 1.85 -0.15 4.45 -0.80 6.15 -1.50z m23.80 0.35 c3.15 -1.60 4.20 -3.15 4.45 -6.50 0.10 -1.60 0.10 -3.50 -0.10 -4.10 -0.60 -2.30 -3.35 -4.55 -7.50 -6.20 -4.40 -1.75 -5.40 -2.65 -4.35 -3.90 0.85 -1 3.75 -1.05 6.55 -0.05 3.70 1.30 4.30 0.95 5.20 -3.35 0.30 -1.20 0.10 -1.45 -1.35 -2.05 -2.55 -1.10 -8.10 -1.90 -10.45 -1.55 -2.95 0.45 -6.10 2.35 -7.40 4.45 -1.20 2 -1.45 5.55 -0.55 7.85 0.50 1.35 3.80 4.10 5.80 4.90 5.60 2.20 6.70 3.25 5.05 4.90 -1 1 -4.70 0.95 -6.70 -0.10 -2.70 -1.35 -3.40 -1.40 -4.25 -0.15 -0.45 0.65 -0.90 2 -1.10 2.90 -0.30 1.70 -0.30 1.75 2.35 2.80 4.45 1.85 10.95 1.90 14.35 0.15z m-282.80 0.55 c1.15 -0.45 1.15 -0.45 1.80 -13.90 0.35 -7.35 0.85 -13.60 1.10 -13.85 0.25 -0.30 0.45 0.05 0.45 0.85 0 0.80 0.90 4.95 1.95 9.25 1.10 4.30 2.15 8.65 2.30 9.60 0.15 0.95 0.50 1.95 0.75 2.20 0.50 0.50 8.25 0.70 8.75 0.25 0.15 -0.20 1.40 -5 2.80 -10.75 2.80 -11.50 2.90 -11.95 3.15 -11.65 0.10 0.10 0.35 4.05 0.55 8.70 0.20 4.70 0.50 11 0.70 14 l0.30 5.50 3.60 0.05 c2 0 3.90 -0.15 4.20 -0.35 0.40 -0.25 0.40 -2.05 0 -7 -0.30 -3.70 -0.80 -9.75 -1.10 -13.45 -0.80 -10.95 -1.35 -16.45 -1.70 -17 -0.45 -0.75 -10.50 -0.65 -11.15 0.15 -0.55 0.65 -2.55 8.95 -4.25 17.50 -0.55 2.95 -1.20 5.35 -1.40 5.35 -0.20 0 -0.50 -0.85 -0.70 -1.85 -0.20 -1.05 -0.45 -2.35 -0.55 -2.90 -0.10 -0.55 -0.55 -2.55 -0.95 -4.50 -0.45 -1.90 -0.90 -3.95 -1 -4.50 -0.90 -4.15 -1.95 -8.15 -2.35 -8.85 -0.35 -0.75 -1.20 -0.90 -5.60 -0.90 -3.55 0 -5.35 0.20 -5.65 0.65 -0.30 0.30 -0.65 2.75 -0.85 5.35 -0.20 2.60 -0.65 9.05 -1.05 14.25 -1.25 16.80 -1.25 17.65 -0.05 17.90 2 0.40 4.75 0.35 5.95 -0.10z m75.25 0.15 c1.10 -0.30 1.10 -0.40 1.10 -9.50 0 -9 0 -9.20 1.15 -9.90 0.60 -0.35 1.70 -0.80 2.40 -1 2.40 -0.55 2.70 0.50 2.95 10.05 0.25 8.45 0.30 8.75 1.45 9.70 1.45 1.15 4.50 1.25 6.65 0.15 1.30 -0.65 1.45 -0.95 1.15 -2.10 -0.20 -0.75 -0.50 -5.40 -0.70 -10.35 -0.40 -9.90 -0.90 -11.85 -3.40 -13.65 -2.50 -1.80 -5.15 -1.90 -8.40 -0.40 -1.60 0.70 -2.95 1.30 -3 1.30 -0.10 0 -0.25 -2.75 -0.30 -6.15 -0.25 -8.15 -0.65 -8.85 -5.20 -8.85 l-3.25 0 0 20.20 c0 15.70 0.15 20.25 0.65 20.45 0.85 0.40 5.40 0.40 6.75 0.05z m108.25 -0.20 c1.70 0 1.85 -0.10 1.85 -1.45 0 -0.80 -0.15 -2.15 -0.30 -3 -0.30 -1.35 -0.55 -1.55 -1.90 -1.55 -0.85 0 -2.10 -0.35 -2.70 -0.80 -1.05 -0.70 -1.10 -1.10 -1.10 -7.75 l0 -6.95 3.20 0 3.20 0 0.15 -1.85 c0.40 -3.95 0.25 -4.15 -3.35 -4.15 l-3.20 0 0 -4.30 0 -4.35 -3.35 0.30 c-4.30 0.35 -5.15 1.20 -5.15 5.40 l0 2.95 -2.20 0 c-2.50 0 -3 0.85 -2.50 4.10 0.30 1.75 0.45 1.85 2.40 2 l2.05 0.15 0.25 8.75 c0.25 8.15 0.35 8.85 1.40 10.35 1.40 1.95 3.45 2.65 6.85 2.40 1.40 -0.10 3.35 -0.20 4.40 -0.25z m42.90 0.25 l1.45 -0.35 0 -8.25 0 -8.25 1.75 -1.75 c1.60 -1.60 2 -1.75 3.75 -1.50 1.85 0.25 2.10 0.15 2.80 -1.20 0.40 -0.85 0.90 -2.60 1.05 -3.90 l0.25 -2.40 -1.80 -0.35 c-2.75 -0.55 -5.70 0.60 -7.25 2.75 l-1.35 1.85 -1.60 -1.90 c-2.05 -2.45 -4.75 -3.45 -6.10 -2.25 -1.65 1.50 -2.05 3.45 -0.95 5.05 0.85 1.30 0.95 2.50 0.95 11.75 0 5.65 0.10 10.40 0.20 10.50 0.40 0.35 5.35 0.50 6.85 0.20z m-89.75 -59.35 c15.65 -6.30 28.25 -17.80 33.50 -30.55 4.15 -10.20 4.30 -21.35 0.40 -31.75 -0.70 -1.75 -1.65 -3.75 -2.15 -4.50 -0.50 -0.75 -1.50 -2.30 -2.25 -3.45 -4.50 -6.80 -14.40 -15.75 -28.20 -25.45 -16.45 -11.50 -25.75 -19.15 -28.15 -23.10 -0.65 -1 -1.30 -1.95 -1.45 -2.10 -0.15 -0.15 -1 -1.40 -1.90 -2.80 -1.95 -3.05 -3.50 -7.50 -3.95 -11.05 -0.15 -1.45 -0.50 -2.65 -0.70 -2.65 -1.60 0 -1.10 8.80 0.80 14.25 1.55 4.50 4.65 10.05 7.10 12.70 0.90 1 1.65 2 1.65 2.25 0 1 9 8.70 18 15.35 10.45 7.70 11.70 8.75 17 13.80 2.80 2.70 5.90 6.05 6.90 7.40 1 1.40 2 2.65 2.25 2.80 0.40 0.30 0.85 1.05 3.40 5.80 3.30 6.05 5.45 13.70 5.45 19.40 0 9.20 -4.80 20.45 -11.45 26.95 l-2.50 2.45 1.20 -2.95 c2.85 -7.15 3.55 -18.20 1.55 -25.40 -2.85 -10.30 -8.60 -19.80 -17.75 -29.45 -4.35 -4.55 -16.25 -15.40 -18.55 -16.95 -0.70 -0.45 -2.25 -1.75 -3.50 -2.85 -1.20 -1.15 -2.35 -2.05 -2.50 -2.05 -0.15 -0.05 -1.90 -1.60 -3.95 -3.50 -2 -1.95 -3.85 -3.50 -4.10 -3.50 -0.55 0 -7.20 -8.15 -8.70 -10.65 -2 -3.45 -2.85 -6.30 -3.25 -11 -0.55 -6.15 -1.10 -6.55 -2.05 -1.55 -0.80 4.20 -0.20 13.40 1.25 19.55 1.30 5.45 1.20 7.45 -0.45 10 l-0.85 1.30 1.45 -0.30 c2.75 -0.55 3.30 1.40 1.85 6.55 -1.65 5.95 -2.95 8.65 -8.90 18.30 -2.45 4.05 -2.40 5.10 0.35 5.80 6.35 1.65 7.10 2.45 9.25 9.95 0.95 3.20 2.20 6.15 3.25 7.75 0.95 1.40 2.20 3.60 2.75 4.90 0.55 1.25 1.45 2.55 2.05 2.85 2.15 1.20 2.55 3 2.50 11.30 -0.05 6.95 0.05 7.95 1.05 9.95 0.80 1.75 1.50 2.40 2.85 2.85 1.95 0.65 6.90 0.35 8.45 -0.45 0.50 -0.30 2.65 -1.15 4.70 -1.90 2.05 -0.75 5.80 -2.35 8.25 -3.60 9.85 -4.90 13.10 -5.55 15.65 -3.15 1.55 1.55 4.95 6.90 5.20 8.35 0.20 1.05 -5.35 5.75 -13.20 11.25 -3.25 2.25 -5.90 4.15 -5.90 4.25 0 0.65 2.90 0 6.30 -1.40z m41.85 -12.60 c6.90 -4.70 10.95 -9.45 15.25 -17.80 8.25 -16.10 6.80 -36.50 -3.75 -52.65 -1.30 -2 -2.80 -4.05 -3.25 -4.55 -0.50 -0.55 -1.40 -1.70 -2 -2.50 -1.35 -1.90 -12.35 -12.20 -15.40 -14.40 -6.90 -5.05 -12.30 -8.25 -25 -14.90 -12.55 -6.60 -19.25 -10.60 -25.70 -15.50 -4.90 -3.65 -5.45 -3.85 -4.05 -1.25 3.45 6.45 9.55 11.50 25.75 21.25 16.45 9.90 22.30 14.20 30.65 22.60 3.50 3.55 6.35 6.65 6.35 6.85 0 0.25 0.65 1.15 1.40 2.05 0.80 0.90 1.85 2.40 2.35 3.45 0.55 1 1.55 2.70 2.25 3.80 2.75 4.25 6.20 14 6.90 19.25 0.20 1.50 0.30 5.25 0.30 8.25 -0.15 11.75 -4.25 21.90 -13.55 33.55 -2 2.55 -3.65 4.75 -3.65 4.95 0 0.65 2.15 -0.40 5.15 -2.45z"/>
  <path d="M233 312.50 c-1.80 -0.45 -3.65 -3.40 -3.25 -5.25 0.75 -3.80 5.65 -5.40 8.05 -2.60 1.45 1.70 1.60 4.55 0.30 6.20 -1 1.35 -3.35 2.10 -5.10 1.65z"/>
  <path d="M252.50 306.35 c0 -2.40 0.15 -2.85 1.05 -3.10 2 -0.65 5.45 0.95 5.45 2.50 0 1.45 -1.80 2.75 -4.10 3.05 l-2.40 0.35 0 -2.80z"/>
  <path d="M392 306 l0 -3.15 2.30 0.35 c2.85 0.35 3.70 1 3.70 2.80 0 1.80 -0.85 2.45 -3.70 2.80 l-2.30 0.35 0 -3.15z"/>
  <path d="M312.75 312.30 c-3.85 -1.65 -3.50 -7.65 0.50 -8.75 4.50 -1.20 7.75 3 5.40 7 -0.80 1.30 -1.30 1.65 -3.65 2.20 -0.40 0.10 -1.45 -0.10 -2.25 -0.45z"/>
  <path d="M220.90 286.90 c-2.55 -2 -0.60 -5.40 3.10 -5.40 l2 0 0 2.50 c0 2.25 -0.15 2.60 -1.30 3 -1.70 0.65 -2.85 0.65 -3.80 -0.10z"/>
  <path d="M279.35 286.75 c-1.10 -1.10 -1.10 -3.40 0.05 -4.40 0.60 -0.55 1.80 -0.85 3.25 -0.85 l2.35 0 0 2.20 c0 2.50 -0.65 3.20 -3.10 3.65 -1.25 0.15 -1.95 0 -2.55 -0.60z"/>
  <path d="M372.90 286.95 c-1.25 -0.70 -1.90 -3.60 -1.85 -7.95 0.05 -4.75 0.40 -5.90 2.05 -7.15 1.90 -1.40 3.75 -0.80 4.70 1.50 0.90 2.15 1 9 0.15 11.50 -0.75 2.25 -3.10 3.25 -5.05 2.10z"/>
  <path d="M421.25 274.15 c0.45 -2.55 1.05 -3.15 3 -3.15 2.05 0 3.55 1.30 3.95 3.40 l0.30 1.60 -3.80 0 -3.80 0 0.35 -1.85z"/>
  <path d="M283.45 213.90 c0 -0.35 -0.10 -4.15 -0.15 -8.40 -0.10 -6.90 -0.20 -8 -1.20 -9.85 -0.60 -1.20 -1.65 -2.50 -2.30 -2.95 -0.70 -0.40 -1.45 -1.45 -1.75 -2.35 -0.35 -0.85 -1.45 -2.90 -2.55 -4.60 -1.20 -1.85 -2.35 -4.55 -3 -7 -1.50 -5.55 -3.90 -9.45 -7.40 -11.85 l-1.15 -0.80 2.25 -3.90 c5.10 -8.85 8.10 -19.85 6.30 -23.25 -0.30 -0.50 -0.40 -0.95 -0.20 -0.95 0.15 0 2.50 1.85 5.15 4.15 2.65 2.30 8.20 7 12.30 10.45 7.80 6.55 16.45 15 19.35 18.90 9.25 12.45 12.40 20.25 12.40 30.75 0 3 -0.10 3.30 -0.85 3 -6.85 -2.90 -8.20 -2.60 -24.65 5.10 -7.70 3.65 -12.45 4.95 -12.55 3.55z"/>
 </g>
</svg>